- 
http://www.Speed.Cd
 
http://www.Speed.Cd       the fast  and The Hottest Private Tracker on the net

Please Seed back to make the speed Faster!!
 ............ NFO .............
-[IMG]http://i.imgur.com/cDvSSI1.jpg[/IMG]

Source: DVDR L-S - Thanks
 
http://www.imdb.com/title/tt1877797/

A couple endures a series of mishaps right before their wedding day.

General
Complete name                            : The Knot 2012 DVDRip x264 AC3-OFFLiNE.mkv
Format                                   : Matroska
Format version                           : Version 4 / Version 2
File size                                : 1.42 GiB
Duration                                 : 1h 28mn
Overall bit rate mode                    : Variable
Overall bit rate                         : 2 307 Kbps
Encoded date                             : UTC 2013-03-11 22:18:36
Writing application                      : mkvmerge v6.1.0 ('Old Devil') built on Mar  2 2013 14:32:37
Writing library                          : libebml v1.3.0 + libmatroska v1.4.0

Video
ID                                       : 1
Format                                   : AVC
Format/Info                              : Advanced Video Codec
Format profile                           : High@L4.1
Format settings, CABAC                   : Yes
Format settings, ReFrames                : 3 frames
Codec ID                                 : V_MPEG4/ISO/AVC
Duration                                 : 1h 28mn
Bit rate mode                            : Variable
Bit rate                                 : 1 857 Kbps
Maximum bit rate                         : 40.0 Mbps
Width                                    : 720 pixels
Height                                   : 304 pixels
Display aspect ratio                     : 2.35:1
Frame rate mode                          : Constant
Frame rate                               : 25.000 fps
Color space                              : YUV
Chroma subsampling                       : 4:2:0
Bit depth                                : 8 bits
Scan type                                : Progressive
Bits/(Pixel*Frame)                       : 0.339
Stream size                              : 1.12 GiB (79%)
Writing library                          : x264 core 130 r2273 b3065e6

Audio
ID                                       : 2
Format                                   : AC-3
Format/Info                              : Audio Coding 3
Mode extension                           : CM (complete main)
Format settings, Endianness              : Big
Codec ID                                 : A_AC3
Duration                                 : 1h 28mn
Bit rate mode                            : Constant
Bit rate                                 : 448 Kbps
Channel(s)                               : 6 channels
Channel positions                        : Front: L C R, Side: L R, LFE
Sampling rate                            : 48.0 KHz
Bit depth                                : 16 bits
Compression mode                         : Lossy
Stream size                              : 283 MiB (19%)
Language                                 : English
Default                                  : Yes
Forced                                   : No

[IMG]http://i.imgur.com/jU0JAA1.png[/IMG]
[IMG]http://i.imgur.com/bPL5caW.png[/IMG]
[IMG]http://i.imgur.com/xWWzKgt.png[/IMG]
[IMG]http://i.imgur.com/2rvyvdI.png[/IMG]
[IMG]http://i.imgur.com/enghiTg.png[/IMG]

Greets: To Our Friends